<?xml version="1.0" encoding="utf-8"?>
<!-- Generator: Adobe Illustrator 16.0.0, SVG Export Plug-In . SVG Version: 6.00 Build 0)  -->
<!DOCTYPE svg PUBLIC "-//W3C//DTD SVG 1.1//EN" "http://www.w3.org/Graphics/SVG/1.1/DTD/svg11.dtd">
<svg version="1.1" id="Layer_1" xmlns="http://www.w3.org/2000/svg" xmlns:xlink="http://www.w3.org/1999/xlink" x="0px" y="0px"
	 width="100%" height="1000px" viewBox="0 0 768 1000" enable-background="new 0 0 768 1000" xml:space="preserve">
<g>
	<path fill="#FFFFFF" d="M667.389,301.152l27.152,27.152l11.688-11.687c20.214-20.214,20.214-53.105,0-73.32l-70.265-70.264
		c-9.792-9.791-22.812-15.184-36.658-15.184c-13.849,0-26.867,5.392-36.659,15.184l-11.688,11.688l27.153,27.152l11.688-11.688
		c2.539-2.539,5.915-3.938,9.507-3.938c3.591,0,6.967,1.399,9.506,3.938l70.264,70.263c5.242,5.242,5.242,13.772,0,19.014
		L667.389,301.152z"/>
	<path fill="#FFFFFF" d="M70.523,706.909C42.404,735.028,9.929,813.095,38.049,841.215c21.571,21.57,72.529,7.484,107.789-12.94
		c2.552-1.479,4.78-5.065,4.935-8.011c1.202-22.954,4.194-57.465,4.194-57.465c0.01-1.152,0.688-1.83,1.84-1.84l61.902-1.357
		c1.585-0.034,2.862-1.312,2.895-2.897l1.296-61.84c0.01-1.152,0.688-1.83,1.841-1.841c0,0,40.448-0.357,56.977-0.507
		c3.817-0.034,9.101-2.251,11.8-4.949c12.958-12.956,49.539-49.532,83.693-83.686L275.38,502.052L70.523,706.909z"/>
	<path fill="#FFFFFF" d="M680.964,341.881l-27.152-27.152l-89.276-89.277l-27.152-27.153l-48.197-48.196
		c-6.781-6.781-15.669-10.172-24.557-10.172c-8.887,0-17.775,3.391-24.556,10.172l-179,178.999c-36.31,36.31-36.31,95.18,0,131.489
		l27.884,27.884l101.83,101.83l27.885,27.885c18.155,18.155,41.95,27.232,65.745,27.232s47.59-9.077,65.744-27.232l179-178.999
		c13.562-13.562,13.562-35.551,0-49.112L680.964,341.881z M468.912,519.507c-4.866,4.866-10.889,8.15-17.445,9.618
		c-2.563,0.573-5.205,0.879-7.896,0.879c-9.573,0-18.573-3.729-25.342-10.497l-58.473-58.473
		c-6.77-6.769-10.497-15.769-10.497-25.343c0-2.734,0.314-5.418,0.906-8.02c1.48-6.509,4.755-12.486,9.591-17.322
		c6.769-6.769,15.769-10.497,25.342-10.497c9.574,0,18.574,3.729,25.342,10.497l2.375,2.375l53.469,53.469l2.629,2.629
		c6.77,6.769,10.497,15.769,10.497,25.343C479.409,503.738,475.683,512.738,468.912,519.507z M645.142,413.25l-34.805,34.805
		c-22.499,22.499-58.977,22.499-81.476,0l-97.653-97.653c-22.498-22.499-22.498-58.977,0-81.475l34.806-34.805
		c8.403-8.404,22.027-8.404,30.432,0l8.094,8.095l132.509,132.507l8.095,8.095C653.545,391.221,653.545,404.847,645.142,413.25z"/>
	<path fill="#FFFFFF" d="M394.149,426.642c-2.417-2.417-5.632-3.749-9.051-3.749s-6.634,1.331-9.051,3.749
		c-2.417,2.417-3.748,5.632-3.748,9.05c0,3.419,1.331,6.634,3.748,9.051l58.473,58.473c2.417,2.417,5.632,3.749,9.051,3.749
		s6.634-1.331,9.05-3.749c2.417-2.418,3.749-5.632,3.749-9.05c0-3.42-1.331-6.635-3.749-9.051L394.149,426.642z"/>
</g>
</svg>
