<?xml version="1.0" encoding="utf-8"?>
<!-- Generator: Adobe Illustrator 16.0.0, SVG Export Plug-In . SVG Version: 6.00 Build 0)  -->
<!DOCTYPE svg PUBLIC "-//W3C//DTD SVG 1.1//EN" "http://www.w3.org/Graphics/SVG/1.1/DTD/svg11.dtd">
<svg version="1.1" id="Capa_1" xmlns="http://www.w3.org/2000/svg" xmlns:xlink="http://www.w3.org/1999/xlink" x="0px" y="0px"
	 width="612px" height="792px" viewBox="0 0 612 792" enable-background="new 0 0 612 792" xml:space="preserve">
<path fill="#6A900F" d="M478.584,501.876c4.488-4.488,6.12-9.384,4.896-14.688c-0.408-2.446-1.432-4.69-3.062-6.73
	s-3.468-3.876-5.508-5.508l-72.216-42.229l-0.612-0.608c-2.448-1.228-5.712-1.836-9.792-1.836c-6.528,0-11.628,2.039-15.3,6.116
	l-21.42,21.423c-1.228,1.225-2.856,1.837-4.896,1.837c-4.896-0.816-10.812-3.062-17.748-6.732
	c-5.712-3.264-12.954-7.854-21.726-13.771c-8.772-5.916-18.87-14.589-30.294-26.013c-8.16-8.564-15.708-17.136-22.644-25.704
	c-5.712-6.936-11.016-14.484-15.912-22.644s-7.548-15.3-7.956-21.42c0-2.04,0.612-3.672,1.836-4.896l18.36-18.36
	c3.264-3.264,5.304-7.242,6.12-11.934c0.816-4.692,0.204-9.078-1.836-13.158l-39.78-74.664c-3.264-6.528-8.16-9.792-14.688-9.792
	c-4.08,0-8.16,1.632-12.24,4.896l-48.96,49.572c-2.448,2.04-4.59,4.998-6.426,8.874c-1.836,3.876-2.958,7.446-3.366,10.71v15.3
	c0,0,2.652,12.648,7.956,37.944c5.304,25.296,14.586,44.268,27.846,56.916c13.26,12.647,32.742,36.516,58.446,71.604
	c22.032,22.032,42.636,39.372,61.812,52.021c19.176,12.646,36.414,22.134,51.713,28.458c15.301,6.32,28.255,10.302,38.859,11.934
	c10.608,1.632,18.156,2.448,22.646,2.448c2.04,0,3.672-0.104,4.896-0.308c1.228-0.202,2.04-0.308,2.448-0.308
	c3.264-0.408,6.729-1.53,10.404-3.366c3.672-1.836,6.729-3.978,9.18-6.426L478.584,501.876L478.584,501.876z M306,90
	c42.024,0,81.702,8.058,119.034,24.174c37.332,16.116,69.768,37.944,97.308,65.484s49.368,59.976,65.484,97.308S612,353.976,612,396
	c0,28.152-3.672,55.284-11.016,81.396c-7.348,26.108-17.646,50.486-30.906,73.134c-13.26,22.644-29.172,43.248-47.736,61.812
	c-18.562,18.564-39.168,34.479-61.812,47.736c-22.646,13.26-47.022,23.562-73.137,30.906C361.284,698.328,334.152,702,306,702
	c-28.152,0-55.284-3.672-81.396-11.016c-26.112-7.348-50.49-17.646-73.134-30.906c-22.644-13.26-43.248-29.172-61.812-47.736
	c-18.564-18.562-34.476-39.168-47.736-61.812c-13.26-22.646-23.562-47.022-30.906-73.136C3.672,451.284,0,424.152,0,396
	c0-28.152,3.672-55.284,11.016-81.396c7.344-26.112,17.646-50.49,30.906-73.134c13.26-22.644,29.172-43.248,47.736-61.812
	c18.564-18.564,39.168-34.476,61.812-47.736c22.644-13.26,47.022-23.562,73.134-30.906C250.716,93.672,277.848,90,306,90z"/>
</svg>
